<svg width="264" height="280" xmlns="http://www.w3.org/2000/svg" xmlns:xlink="http://www.w3.org/1999/xlink"><defs><path d="M12 160c0 66.274 53.726 120 120 120s120-53.726 120-120h12V0H0v160h12Z" id="path-3"/><path d="M124 144.611V163h4c39.765 0 72 32.235 72 72v9H0v-9c0-39.765 32.235-72 72-72h4v-18.389c-17.237-8.189-29.628-24.924-31.695-44.73C38.48 99.058 34 94.052 34 88V74c0-5.946 4.325-10.882 10-11.834V56c0-30.928 25.072-56 56-56s56 25.072 56 56v6.166c5.675.952 10 5.888 10 11.834v14c0 6.052-4.48 11.058-10.305 11.881-2.067 19.806-14.458 36.541-31.695 44.73Z" id="path-5"/><circle id="path-1" cx="120" cy="120" r="120"/></defs><g id="Avataaar" stroke="none" stroke-width="1" fill="none" fill-rule="evenodd"><g id="Avataaar/Circle"><g id="Circle" stroke-width="1" fill-rule="evenodd" transform="translate(12 40)"><mask id="mask-2" fill="#fff"><use xlink:href="#path-1"/></mask><use id="Circle-Background" fill="#E6E6E6" xlink:href="#path-1"/><g id="Color/Palette/Blue-01" mask="url('#mask-2')" fill="#65C9FF"><path id="🖍Color" d="M0 0h240v240H0z"/></g></g><mask id="mask-4" fill="#fff"><use xlink:href="#path-3"/></mask><g id="Avataaar" stroke-width="1" fill-rule="evenodd" mask="url('#mask-4')"><g id="Body" transform="translate(32 36)"><mask id="mask-6" fill="#fff"><use xlink:href="#path-5"/></mask><use fill="#D0C6AC" xlink:href="#path-5"/><g id="Skin/👶🏽-03-Brown" mask="url('#mask-6')" fill="#EDB98A"><path d="M0 0h264v244H0z" transform="translate(-32)" id="Color"/></g><path d="M156 79v23c0 30.928-25.072 56-56 56s-56-25.072-56-56V79v15c0 30.928 25.072 56 56 56s56-25.072 56-56V79Z" id="Neck-Shadow" fill-opacity=".1" fill="#000" mask="url('#mask-6')"/></g><g id="Clothing/Hoodie" transform="translate(0 170)"><defs><path d="M108 13.07c-17.919 2.006-31.72 7.482-31.996 21.575C50.146 45.568 32 71.165 32 100.999V110h200v-9c0-29.835-18.146-55.432-44.004-66.355-.276-14.093-14.077-19.57-31.996-21.574V32c0 13.255-10.745 24-24 24s-24-10.745-24-24V13.07Z" id="react-path-1"/></defs><mask id="react-mask-2" fill="#fff"><use xlink:href="#react-path-1"/></mask><use id="Hoodie" fill="#B7C1DB" fill-rule="evenodd" xlink:href="#react-path-1"/><g id="Color/Palette/Gray-01" mask="url('#react-mask-2')" fill-rule="evenodd" fill="#3C4F5C"><path id="🖍Color" d="M0 0h264v110H0z"/></g><path d="M102 61.74V110h-7V58.15a64.54 64.54 0 0 0 7 3.59Zm67-3.59V98.5a3.5 3.5 0 1 1-7 0V61.74a64.54 64.54 0 0 0 7-3.59Z" id="Straps" fill="#F4F4F4" fill-rule="evenodd" mask="url('#react-mask-2')"/><path d="M90.96 12.724C75.91 15.571 65.5 21.243 65.5 32.308 65.5 52.02 98.538 68 132 68s66.5-15.98 66.5-35.692c0-11.065-10.41-16.737-25.46-19.584 9.085 3.35 14.96 8.982 14.96 18.353C188 51.469 160.179 68 132 68S76 51.469 76 31.077c0-9.37 5.875-15.003 14.96-18.353Z" id="Shadow" fill-opacity=".16" fill="#000" fill-rule="evenodd" mask="url('#react-mask-2')"/></g><g id="Face" transform="translate(76 82)" fill="#000"><g id="Mouth/Smile" transform="translate(2 52)"><defs><path d="M35.118 15.128C36.176 24.62 44.226 32 54 32c9.804 0 17.874-7.426 18.892-16.96.082-.767-.775-2.04-1.85-2.04H37.088c-1.08 0-2.075 1.178-1.97 2.128Z" id="react-path-3"/></defs><mask id="react-mask-4" fill="#fff"><use xlink:href="#react-path-3"/></mask><use id="Mouth" fill-opacity=".7" fill="#000" fill-rule="evenodd" xlink:href="#react-path-3"/><rect id="Teeth" fill="#FFF" fill-rule="evenodd" mask="url('#react-mask-4')" x="39" y="2" width="31" height="16" rx="5"/><g id="Tongue" stroke-width="1" fill-rule="evenodd" mask="url('#react-mask-4')" fill="#FF4F6D"><g transform="translate(38 24)"><circle cx="11" cy="11" r="11"/><circle cx="21" cy="11" r="11"/></g></g></g><g id="Nose/Default" transform="translate(28 40)" fill-opacity=".16"><path d="M16 8c0 4.418 5.373 8 12 8s12-3.582 12-8" id="Nose"/></g><g id="Eyes/Eye-Roll-🙄" transform="translate(0 8)"><circle id="Eyeball" fill="#FFF" cx="30" cy="22" r="14"/><circle id="The-white-stuff" fill="#FFF" cx="82" cy="22" r="14"/><circle id="Eye" fill-opacity=".7" fill="#000" cx="30" cy="14" r="6"/><circle id="Eye" fill-opacity=".7" fill="#000" cx="82" cy="14" r="6"/></g><g id="Eyebrow/Natural/Default-Natural" fill-opacity=".6"><path d="M26.04 6.21c-5.762.773-14.747 5.795-13.996 11.608.025.19.313.25.437.09 2.486-3.188 21.712-7.871 28.713-6.893.641.09 1.064-.572.627-.985-3.744-3.535-10.62-4.518-15.782-3.82" id="Eyebrow" transform="rotate(5 27 12)"/><path d="M85.04 6.21c-5.762.773-14.747 5.795-13.996 11.608.025.19.313.25.437.09 2.486-3.188 21.712-7.871 28.713-6.893.641.09 1.064-.572.627-.985-3.744-3.535-10.62-4.518-15.782-3.82" id="Eyebrow" transform="scale(-1 1) rotate(5 0 -1957.724)"/></g></g><g id="Top" stroke-width="1" fill-rule="evenodd"><defs><path id="react-path-9" d="M0 0h264v280H0z"/><path d="M180.15 39.92c-2.76-2.82-5.964-5.213-9.08-7.613-.688-.53-1.387-1.046-2.06-1.595-.152-.125-1.718-1.246-1.905-1.659-.451-.993-.19-.22-.128-1.404.079-1.498 3.134-5.73.854-6.7-1.003-.427-2.791.709-3.753 1.084a59.489 59.489 0 0 1-5.731 1.9c.932-1.857 2.708-5.574-.631-4.579-2.602.775-5.026 2.768-7.64 3.705.865-1.417 4.324-5.811 1.198-6.057-.972-.076-3.803 1.748-4.85 2.138-3.137 1.165-6.34 1.92-9.634 2.513-11.198 2.018-24.293 1.442-34.653 6.54-7.988 3.93-15.874 10.029-20.489 17.795-4.447 7.485-6.11 15.676-7.041 24.253-.683 6.295-.739 12.802-.42 19.119.105 2.07.338 11.61 3.345 8.721 1.498-1.44 1.487-7.253 1.864-9.22.751-3.916 1.474-7.848 2.726-11.638 2.206-6.68 4.809-13.793 10.305-18.393 3.527-2.952 6.004-6.941 9.379-9.919 1.516-1.337.36-1.198 2.797-1.022 1.638.117 3.282.162 4.923.205 3.796.099 7.598.074 11.395.087 7.647.028 15.258.136 22.898-.265 3.395-.177 6.799-.274 10.185-.588 1.891-.175 5.247-1.387 6.804-.461 1.425.847 2.905 3.615 3.928 4.748 2.418 2.679 5.3 4.724 8.126 6.92 5.895 4.58 8.87 10.332 10.66 17.488 1.784 7.13 1.284 13.745 3.491 20.762.389 1.233 1.416 3.36 2.682 1.454.235-.354.175-2.3.175-3.42 0-4.52 1.144-7.91 1.13-12.46-.056-13.832-.504-31.868-10.85-42.439Z" id="react-path-8"/><filter x="-.8%" y="-2%" width="101.5%" height="108%" filterUnits="objectBoundingBox" id="react-filter-5"><feOffset dy="2" in="SourceAlpha" result="shadowOffsetOuter1"/><feColorMatrix values="0 0 0 0 0 0 0 0 0 0 0 0 0 0 0 0 0 0 0.16 0" in="shadowOffsetOuter1" result="shadowMatrixOuter1"/><feMerge><feMergeNode in="shadowMatrixOuter1"/><feMergeNode in="SourceGraphic"/></feMerge></filter></defs><mask id="react-mask-7" fill="#fff"><use xlink:href="#react-path-9"/></mask><g id="Top/Short-Hair/Short-Flat" mask="url('#react-mask-7')"><g transform="translate(-1)"><mask id="react-mask-6" fill="#fff"><use xlink:href="#react-path-8"/></mask><use id="Short-Hair" stroke="none" fill="#1F3140" fill-rule="evenodd" xlink:href="#react-path-8"/><g id="Skin/👶🏽-03-Brown" mask="url('#react-mask-6')" fill="#4A312C"><path d="M0 0h264v280H0z" id="Color"/></g><g id="Top/_Resources/Prescription-02" fill="none" transform="translate(62 85)" stroke-width="1"><defs><filter x="-.8%" y="-2.4%" width="101.5%" height="109.8%" filterUnits="objectBoundingBox" id="react-filter-10"><feOffset dy="2" in="SourceAlpha" result="shadowOffsetOuter1"/><feColorMatrix values="0 0 0 0 0 0 0 0 0 0 0 0 0 0 0 0 0 0 0.2 0" in="shadowOffsetOuter1" result="shadowMatrixOuter1"/><feMerge><feMergeNode in="shadowMatrixOuter1"/><feMergeNode in="SourceGraphic"/></feMerge></filter></defs><g id="Wayfarers" filter="url('#react-filter-10')" transform="translate(6 7)" fill="#252C2F" fill-rule="nonzero"><path d="M34 41h-2.758C17.315 41 9 33.336 9 20.5 9 10.127 10.817 0 32.53 0h2.94C57.183 0 59 10.127 59 20.5 59 32.569 48.721 41 34 41ZM32.385 6C13 6 13 12.841 13 21.502 13 28.572 16.116 37 30.97 37H34c12.365 0 21-6.373 21-15.498C55 12.84 55 6 35.615 6h-3.23Z" id="Left"/><path d="M96 41h-2.758C79.315 41 71 33.336 71 20.5 71 10.127 72.817 0 94.53 0h2.94C119.183 0 121 10.127 121 20.5 121 32.569 110.721 41 96 41ZM94.385 6C75 6 75 12.841 75 21.502 75 28.572 78.12 37 92.97 37H96c12.365 0 21-6.373 21-15.498C117 12.84 117 6 97.615 6h-3.23Z" id="Right"/><path d="M2.955 5.772C3.645 5.096 11.21 0 32.5 0c17.851 0 21.63 1.853 27.35 4.652l.419.207c.398.14 2.431.83 4.81.907a16.998 16.998 0 0 0 4.563-.869C76.17 1.722 82.562 0 97.5 0c21.29 0 28.854 5.096 29.545 5.772 1.634 0 2.955 1.29 2.955 2.885v2.886c0 1.596-1.32 2.886-2.955 2.886 0 0-6.901 0-6.901 2.886 0 2.885-1.962-4.176-1.962-5.772v-2.81c-3.603-1.38-10.054-3.947-20.682-3.947-11.842 0-17.739 2.1-22.798 4.185l.057.137-.003 1.986-2.217 5.35L69.8 15.36c-.244-.097-.772-.27-1.504-.451-2.04-.503-4.137-.656-5.992-.276-.68.14-1.312.35-1.891.633l-2.643 1.29-2.643-5.16.117-2.295.08-.195c-4.362-2.033-8.385-4.12-22.824-4.12-10.628 0-17.078 2.565-20.682 3.944v2.812c0 1.596-2.954 8.657-2.954 5.772 0-2.886-5.91-2.886-5.91-2.886-1.63 0-2.954-1.29-2.954-2.886V8.657c0-1.595 1.324-2.885 2.955-2.885Z" id="Stuff"/></g></g></g></g></g></g></g></g></svg>